<mxfile host="app.diagrams.net" agent="Mozilla/5.0 (Windows NT 10.0; Win64; x64) AppleWebKit/537.36 (KHTML, like Gecko) Chrome/129.0.0.0 Safari/537.36" version="24.7.17">
  <diagram name="Page-1" id="gnUpcJbfbStD6SJk-7Ka">
    <mxGraphModel dx="1050" dy="530" grid="0" gridSize="10" guides="1" tooltips="1" connect="1" arrows="1" fold="1" page="1" pageScale="1" pageWidth="850" pageHeight="1100" math="0" shadow="0">
      <root>
        <mxCell id="0" />
        <mxCell id="1" parent="0" />
        <mxCell id="Ct0I48tkdxGMEcX3vQlY-1" value="" style="rounded=1;whiteSpace=wrap;html=1;fillColor=none;" parent="1" vertex="1">
          <mxGeometry x="200" y="70" width="500" height="450" as="geometry" />
        </mxCell>
        <mxCell id="Ct0I48tkdxGMEcX3vQlY-3" value="&lt;b style=&quot;font-size: 15px;&quot;&gt;System&lt;/b&gt;" style="text;html=1;align=center;verticalAlign=middle;whiteSpace=wrap;rounded=0;" parent="1" vertex="1">
          <mxGeometry x="425" y="70" width="60" height="30" as="geometry" />
        </mxCell>
        <mxCell id="Ct0I48tkdxGMEcX3vQlY-28" style="rounded=0;orthogonalLoop=1;jettySize=auto;html=1;exitX=1;exitY=0.3333333333333333;exitDx=0;exitDy=0;exitPerimeter=0;entryX=0;entryY=0.5;entryDx=0;entryDy=0;endArrow=none;endFill=0;" parent="1" source="Ct0I48tkdxGMEcX3vQlY-4" target="Ct0I48tkdxGMEcX3vQlY-8" edge="1">
          <mxGeometry relative="1" as="geometry" />
        </mxCell>
        <mxCell id="Ct0I48tkdxGMEcX3vQlY-31" style="rounded=0;orthogonalLoop=1;jettySize=auto;html=1;exitX=1;exitY=0.3333333333333333;exitDx=0;exitDy=0;exitPerimeter=0;entryX=0;entryY=0.5;entryDx=0;entryDy=0;endArrow=none;endFill=0;" parent="1" source="Ct0I48tkdxGMEcX3vQlY-4" target="Ct0I48tkdxGMEcX3vQlY-11" edge="1">
          <mxGeometry relative="1" as="geometry" />
        </mxCell>
        <mxCell id="Ct0I48tkdxGMEcX3vQlY-4" value="Labellers" style="shape=umlActor;verticalLabelPosition=bottom;verticalAlign=top;html=1;outlineConnect=0;" parent="1" vertex="1">
          <mxGeometry x="110" y="150" width="30" height="60" as="geometry" />
        </mxCell>
        <mxCell id="Ct0I48tkdxGMEcX3vQlY-27" style="rounded=0;orthogonalLoop=1;jettySize=auto;html=1;exitX=1;exitY=0.3333333333333333;exitDx=0;exitDy=0;exitPerimeter=0;entryX=0;entryY=0.5;entryDx=0;entryDy=0;endArrow=none;endFill=0;" parent="1" source="Ct0I48tkdxGMEcX3vQlY-5" target="Ct0I48tkdxGMEcX3vQlY-21" edge="1">
          <mxGeometry relative="1" as="geometry" />
        </mxCell>
        <mxCell id="Ct0I48tkdxGMEcX3vQlY-32" style="rounded=0;orthogonalLoop=1;jettySize=auto;html=1;exitX=1;exitY=0.3333333333333333;exitDx=0;exitDy=0;exitPerimeter=0;entryX=0;entryY=0.5;entryDx=0;entryDy=0;endArrow=none;endFill=0;" parent="1" source="Ct0I48tkdxGMEcX3vQlY-5" target="Ct0I48tkdxGMEcX3vQlY-11" edge="1">
          <mxGeometry relative="1" as="geometry" />
        </mxCell>
        <mxCell id="Ct0I48tkdxGMEcX3vQlY-5" value="Customers" style="shape=umlActor;verticalLabelPosition=bottom;verticalAlign=top;html=1;outlineConnect=0;" parent="1" vertex="1">
          <mxGeometry x="110" y="330" width="30" height="60" as="geometry" />
        </mxCell>
        <mxCell id="Ct0I48tkdxGMEcX3vQlY-6" value="Satellite Image Provider" style="shape=umlActor;verticalLabelPosition=bottom;verticalAlign=top;html=1;outlineConnect=0;" parent="1" vertex="1">
          <mxGeometry x="760" y="400" width="30" height="60" as="geometry" />
        </mxCell>
        <mxCell id="Ct0I48tkdxGMEcX3vQlY-8" value="Log In" style="ellipse;whiteSpace=wrap;html=1;" parent="1" vertex="1">
          <mxGeometry x="290" y="150" width="80" height="40" as="geometry" />
        </mxCell>
        <mxCell id="Ct0I48tkdxGMEcX3vQlY-56" style="edgeStyle=orthogonalEdgeStyle;rounded=0;orthogonalLoop=1;jettySize=auto;html=1;exitX=0.5;exitY=1;exitDx=0;exitDy=0;entryX=0.5;entryY=0;entryDx=0;entryDy=0;" parent="1" source="Ct0I48tkdxGMEcX3vQlY-10" target="Ct0I48tkdxGMEcX3vQlY-8" edge="1">
          <mxGeometry relative="1" as="geometry" />
        </mxCell>
        <mxCell id="Ct0I48tkdxGMEcX3vQlY-57" value="&amp;lt;includes&amp;gt;" style="edgeLabel;html=1;align=center;verticalAlign=middle;resizable=0;points=[];" parent="Ct0I48tkdxGMEcX3vQlY-56" vertex="1" connectable="0">
          <mxGeometry x="0.15" relative="1" as="geometry">
            <mxPoint as="offset" />
          </mxGeometry>
        </mxCell>
        <mxCell id="Ct0I48tkdxGMEcX3vQlY-10" value="Update User Information" style="ellipse;whiteSpace=wrap;html=1;" parent="1" vertex="1">
          <mxGeometry x="280" y="79" width="91" height="41" as="geometry" />
        </mxCell>
        <mxCell id="Ct0I48tkdxGMEcX3vQlY-11" value="Sign Up" style="ellipse;whiteSpace=wrap;html=1;" parent="1" vertex="1">
          <mxGeometry x="220" y="230" width="80" height="40" as="geometry" />
        </mxCell>
        <mxCell id="Ct0I48tkdxGMEcX3vQlY-58" style="rounded=0;orthogonalLoop=1;jettySize=auto;html=1;exitX=0;exitY=0.5;exitDx=0;exitDy=0;entryX=1;entryY=0.5;entryDx=0;entryDy=0;" parent="1" source="Ct0I48tkdxGMEcX3vQlY-12" target="Ct0I48tkdxGMEcX3vQlY-8" edge="1">
          <mxGeometry relative="1" as="geometry" />
        </mxCell>
        <mxCell id="Ct0I48tkdxGMEcX3vQlY-66" value="&amp;lt;includes" style="edgeLabel;html=1;align=center;verticalAlign=middle;resizable=0;points=[];" parent="Ct0I48tkdxGMEcX3vQlY-58" vertex="1" connectable="0">
          <mxGeometry x="0.0365" y="-1" relative="1" as="geometry">
            <mxPoint as="offset" />
          </mxGeometry>
        </mxCell>
        <mxCell id="Ct0I48tkdxGMEcX3vQlY-12" value="Annotate Satellite Images" style="ellipse;whiteSpace=wrap;html=1;" parent="1" vertex="1">
          <mxGeometry x="410" y="120" width="107" height="38" as="geometry" />
        </mxCell>
        <mxCell id="Ct0I48tkdxGMEcX3vQlY-63" style="rounded=0;orthogonalLoop=1;jettySize=auto;html=1;exitX=0;exitY=0.5;exitDx=0;exitDy=0;entryX=1;entryY=0;entryDx=0;entryDy=0;" parent="1" source="Ct0I48tkdxGMEcX3vQlY-13" target="Ct0I48tkdxGMEcX3vQlY-12" edge="1">
          <mxGeometry relative="1" as="geometry" />
        </mxCell>
        <mxCell id="Ct0I48tkdxGMEcX3vQlY-67" value="&amp;lt;extends&amp;gt;" style="edgeLabel;html=1;align=center;verticalAlign=middle;resizable=0;points=[];" parent="Ct0I48tkdxGMEcX3vQlY-63" vertex="1" connectable="0">
          <mxGeometry x="-0.0925" y="2" relative="1" as="geometry">
            <mxPoint as="offset" />
          </mxGeometry>
        </mxCell>
        <mxCell id="Ct0I48tkdxGMEcX3vQlY-13" value="Segment Annotation" style="ellipse;whiteSpace=wrap;html=1;" parent="1" vertex="1">
          <mxGeometry x="570" y="80" width="80" height="40" as="geometry" />
        </mxCell>
        <mxCell id="Ct0I48tkdxGMEcX3vQlY-14" value="Process Payment" style="ellipse;whiteSpace=wrap;html=1;" parent="1" vertex="1">
          <mxGeometry x="590" y="320" width="80" height="40" as="geometry" />
        </mxCell>
        <mxCell id="Ct0I48tkdxGMEcX3vQlY-64" style="rounded=0;orthogonalLoop=1;jettySize=auto;html=1;exitX=0;exitY=0.5;exitDx=0;exitDy=0;entryX=1;entryY=0.5;entryDx=0;entryDy=0;" parent="1" source="Ct0I48tkdxGMEcX3vQlY-15" target="Ct0I48tkdxGMEcX3vQlY-12" edge="1">
          <mxGeometry relative="1" as="geometry" />
        </mxCell>
        <mxCell id="Ct0I48tkdxGMEcX3vQlY-68" value="&amp;lt;extends&amp;gt;" style="edgeLabel;html=1;align=center;verticalAlign=middle;resizable=0;points=[];" parent="Ct0I48tkdxGMEcX3vQlY-64" vertex="1" connectable="0">
          <mxGeometry x="0.0937" relative="1" as="geometry">
            <mxPoint as="offset" />
          </mxGeometry>
        </mxCell>
        <mxCell id="Ct0I48tkdxGMEcX3vQlY-15" value="Bounding Box Annotation" style="ellipse;whiteSpace=wrap;html=1;" parent="1" vertex="1">
          <mxGeometry x="583" y="139" width="94" height="43" as="geometry" />
        </mxCell>
        <mxCell id="Ct0I48tkdxGMEcX3vQlY-65" style="rounded=0;orthogonalLoop=1;jettySize=auto;html=1;exitX=0;exitY=0.5;exitDx=0;exitDy=0;entryX=1;entryY=1;entryDx=0;entryDy=0;" parent="1" source="Ct0I48tkdxGMEcX3vQlY-16" target="Ct0I48tkdxGMEcX3vQlY-12" edge="1">
          <mxGeometry relative="1" as="geometry" />
        </mxCell>
        <mxCell id="Ct0I48tkdxGMEcX3vQlY-69" value="&amp;lt;extends&amp;gt;" style="edgeLabel;html=1;align=center;verticalAlign=middle;resizable=0;points=[];" parent="Ct0I48tkdxGMEcX3vQlY-65" vertex="1" connectable="0">
          <mxGeometry x="-0.0347" relative="1" as="geometry">
            <mxPoint as="offset" />
          </mxGeometry>
        </mxCell>
        <mxCell id="Ct0I48tkdxGMEcX3vQlY-16" value="Classification" style="ellipse;whiteSpace=wrap;html=1;" parent="1" vertex="1">
          <mxGeometry x="570" y="200" width="80" height="40" as="geometry" />
        </mxCell>
        <mxCell id="Ct0I48tkdxGMEcX3vQlY-48" style="rounded=0;orthogonalLoop=1;jettySize=auto;html=1;exitX=0;exitY=1;exitDx=0;exitDy=0;entryX=1;entryY=0;entryDx=0;entryDy=0;" parent="1" source="Ct0I48tkdxGMEcX3vQlY-17" target="Ct0I48tkdxGMEcX3vQlY-20" edge="1">
          <mxGeometry relative="1" as="geometry" />
        </mxCell>
        <mxCell id="Ct0I48tkdxGMEcX3vQlY-49" value="&amp;lt;extends&amp;gt;" style="edgeLabel;html=1;align=center;verticalAlign=middle;resizable=0;points=[];" parent="Ct0I48tkdxGMEcX3vQlY-48" vertex="1" connectable="0">
          <mxGeometry x="-0.2979" y="1" relative="1" as="geometry">
            <mxPoint as="offset" />
          </mxGeometry>
        </mxCell>
        <mxCell id="Ct0I48tkdxGMEcX3vQlY-17" value="Request Satellite Images" style="ellipse;whiteSpace=wrap;html=1;" parent="1" vertex="1">
          <mxGeometry x="580" y="400" width="102" height="50" as="geometry" />
        </mxCell>
        <mxCell id="Ct0I48tkdxGMEcX3vQlY-34" style="rounded=0;orthogonalLoop=1;jettySize=auto;html=1;exitX=0;exitY=0.5;exitDx=0;exitDy=0;entryX=1;entryY=0.5;entryDx=0;entryDy=0;" parent="1" source="Ct0I48tkdxGMEcX3vQlY-19" target="Ct0I48tkdxGMEcX3vQlY-21" edge="1">
          <mxGeometry relative="1" as="geometry" />
        </mxCell>
        <mxCell id="Ct0I48tkdxGMEcX3vQlY-35" value="&amp;lt;includes&amp;gt;" style="edgeLabel;html=1;align=center;verticalAlign=middle;resizable=0;points=[];" parent="Ct0I48tkdxGMEcX3vQlY-34" vertex="1" connectable="0">
          <mxGeometry x="0.2" y="1" relative="1" as="geometry">
            <mxPoint x="6" y="-1" as="offset" />
          </mxGeometry>
        </mxCell>
        <mxCell id="Ct0I48tkdxGMEcX3vQlY-42" style="rounded=0;orthogonalLoop=1;jettySize=auto;html=1;exitX=1;exitY=0;exitDx=0;exitDy=0;entryX=0;entryY=0.5;entryDx=0;entryDy=0;" parent="1" source="Ct0I48tkdxGMEcX3vQlY-19" target="Ct0I48tkdxGMEcX3vQlY-14" edge="1">
          <mxGeometry relative="1" as="geometry" />
        </mxCell>
        <mxCell id="Ct0I48tkdxGMEcX3vQlY-45" value="&amp;lt;includes&amp;gt;" style="edgeLabel;html=1;align=center;verticalAlign=middle;resizable=0;points=[];" parent="Ct0I48tkdxGMEcX3vQlY-42" vertex="1" connectable="0">
          <mxGeometry x="0.0111" y="-2" relative="1" as="geometry">
            <mxPoint as="offset" />
          </mxGeometry>
        </mxCell>
        <mxCell id="Ct0I48tkdxGMEcX3vQlY-43" style="rounded=0;orthogonalLoop=1;jettySize=auto;html=1;exitX=0.5;exitY=1;exitDx=0;exitDy=0;entryX=0.5;entryY=0;entryDx=0;entryDy=0;" parent="1" source="Ct0I48tkdxGMEcX3vQlY-19" target="Ct0I48tkdxGMEcX3vQlY-20" edge="1">
          <mxGeometry relative="1" as="geometry" />
        </mxCell>
        <mxCell id="Ct0I48tkdxGMEcX3vQlY-46" value="&amp;lt;includes&amp;gt;" style="edgeLabel;html=1;align=center;verticalAlign=middle;resizable=0;points=[];" parent="Ct0I48tkdxGMEcX3vQlY-43" vertex="1" connectable="0">
          <mxGeometry x="-0.2296" y="-2" relative="1" as="geometry">
            <mxPoint as="offset" />
          </mxGeometry>
        </mxCell>
        <mxCell id="Ct0I48tkdxGMEcX3vQlY-19" value="Request Satellite Image Analysis" style="ellipse;whiteSpace=wrap;html=1;" parent="1" vertex="1">
          <mxGeometry x="432.5" y="370" width="107.5" height="40" as="geometry" />
        </mxCell>
        <mxCell id="Ct0I48tkdxGMEcX3vQlY-20" value="Upload Satellite Images" style="ellipse;whiteSpace=wrap;html=1;" parent="1" vertex="1">
          <mxGeometry x="470" y="470" width="100" height="43" as="geometry" />
        </mxCell>
        <mxCell id="Ct0I48tkdxGMEcX3vQlY-29" style="edgeStyle=orthogonalEdgeStyle;rounded=0;orthogonalLoop=1;jettySize=auto;html=1;exitX=0.5;exitY=0;exitDx=0;exitDy=0;entryX=0.5;entryY=1;entryDx=0;entryDy=0;" parent="1" source="Ct0I48tkdxGMEcX3vQlY-21" target="Ct0I48tkdxGMEcX3vQlY-8" edge="1">
          <mxGeometry relative="1" as="geometry" />
        </mxCell>
        <mxCell id="Ct0I48tkdxGMEcX3vQlY-30" value="&amp;lt;extends&amp;gt;" style="edgeLabel;html=1;align=center;verticalAlign=middle;resizable=0;points=[];" parent="Ct0I48tkdxGMEcX3vQlY-29" vertex="1" connectable="0">
          <mxGeometry y="1" relative="1" as="geometry">
            <mxPoint as="offset" />
          </mxGeometry>
        </mxCell>
        <mxCell id="Ct0I48tkdxGMEcX3vQlY-21" value="Customer Log In" style="ellipse;whiteSpace=wrap;html=1;" parent="1" vertex="1">
          <mxGeometry x="285" y="330" width="90" height="40" as="geometry" />
        </mxCell>
        <mxCell id="Ct0I48tkdxGMEcX3vQlY-38" style="rounded=0;orthogonalLoop=1;jettySize=auto;html=1;exitX=0;exitY=0;exitDx=0;exitDy=0;entryX=0.5;entryY=1;entryDx=0;entryDy=0;" parent="1" source="Ct0I48tkdxGMEcX3vQlY-22" target="Ct0I48tkdxGMEcX3vQlY-21" edge="1">
          <mxGeometry relative="1" as="geometry" />
        </mxCell>
        <mxCell id="Ct0I48tkdxGMEcX3vQlY-39" value="&amp;lt;includes&amp;gt;" style="edgeLabel;html=1;align=center;verticalAlign=middle;resizable=0;points=[];" parent="Ct0I48tkdxGMEcX3vQlY-38" vertex="1" connectable="0">
          <mxGeometry x="-0.1365" y="3" relative="1" as="geometry">
            <mxPoint as="offset" />
          </mxGeometry>
        </mxCell>
        <mxCell id="Ct0I48tkdxGMEcX3vQlY-22" value="View Image Insights" style="ellipse;whiteSpace=wrap;html=1;" parent="1" vertex="1">
          <mxGeometry x="330" y="430" width="80" height="40" as="geometry" />
        </mxCell>
        <mxCell id="Ct0I48tkdxGMEcX3vQlY-36" style="rounded=0;orthogonalLoop=1;jettySize=auto;html=1;exitX=0;exitY=1;exitDx=0;exitDy=0;entryX=1;entryY=0;entryDx=0;entryDy=0;" parent="1" source="Ct0I48tkdxGMEcX3vQlY-23" target="Ct0I48tkdxGMEcX3vQlY-21" edge="1">
          <mxGeometry relative="1" as="geometry" />
        </mxCell>
        <mxCell id="Ct0I48tkdxGMEcX3vQlY-37" value="&amp;lt;includes&amp;gt;" style="edgeLabel;html=1;align=center;verticalAlign=middle;resizable=0;points=[];" parent="Ct0I48tkdxGMEcX3vQlY-36" vertex="1" connectable="0">
          <mxGeometry x="0.0491" y="3" relative="1" as="geometry">
            <mxPoint as="offset" />
          </mxGeometry>
        </mxCell>
        <mxCell id="Ct0I48tkdxGMEcX3vQlY-23" value="Export Results" style="ellipse;whiteSpace=wrap;html=1;" parent="1" vertex="1">
          <mxGeometry x="432.5" y="280" width="80" height="40" as="geometry" />
        </mxCell>
        <mxCell id="Ct0I48tkdxGMEcX3vQlY-60" style="rounded=0;orthogonalLoop=1;jettySize=auto;html=1;exitX=0;exitY=0.5;exitDx=0;exitDy=0;entryX=1;entryY=1;entryDx=0;entryDy=0;" parent="1" source="Ct0I48tkdxGMEcX3vQlY-24" target="Ct0I48tkdxGMEcX3vQlY-8" edge="1">
          <mxGeometry relative="1" as="geometry" />
        </mxCell>
        <mxCell id="Ct0I48tkdxGMEcX3vQlY-61" value="&amp;lt;includes&amp;gt;" style="edgeLabel;html=1;align=center;verticalAlign=middle;resizable=0;points=[];" parent="Ct0I48tkdxGMEcX3vQlY-60" vertex="1" connectable="0">
          <mxGeometry x="-0.0266" y="4" relative="1" as="geometry">
            <mxPoint as="offset" />
          </mxGeometry>
        </mxCell>
        <mxCell id="Ct0I48tkdxGMEcX3vQlY-24" value="Cash Out" style="ellipse;whiteSpace=wrap;html=1;" parent="1" vertex="1">
          <mxGeometry x="550" y="260" width="80" height="40" as="geometry" />
        </mxCell>
        <mxCell id="Ct0I48tkdxGMEcX3vQlY-54" style="rounded=0;orthogonalLoop=1;jettySize=auto;html=1;exitX=0;exitY=0.3333333333333333;exitDx=0;exitDy=0;exitPerimeter=0;entryX=1;entryY=0;entryDx=0;entryDy=0;endArrow=none;endFill=0;" parent="1" source="Ct0I48tkdxGMEcX3vQlY-25" target="Ct0I48tkdxGMEcX3vQlY-14" edge="1">
          <mxGeometry relative="1" as="geometry" />
        </mxCell>
        <mxCell id="Ct0I48tkdxGMEcX3vQlY-25" value="Financial Institution" style="shape=umlActor;verticalLabelPosition=bottom;verticalAlign=top;html=1;outlineConnect=0;" parent="1" vertex="1">
          <mxGeometry x="760" y="200" width="30" height="60" as="geometry" />
        </mxCell>
        <mxCell id="Ct0I48tkdxGMEcX3vQlY-70" style="rounded=0;orthogonalLoop=1;jettySize=auto;html=1;exitX=1;exitY=0.5;exitDx=0;exitDy=0;entryX=0;entryY=0.3333333333333333;entryDx=0;entryDy=0;entryPerimeter=0;endArrow=none;endFill=0;" parent="1" source="Ct0I48tkdxGMEcX3vQlY-17" target="Ct0I48tkdxGMEcX3vQlY-6" edge="1">
          <mxGeometry relative="1" as="geometry" />
        </mxCell>
        <mxCell id="Ct0I48tkdxGMEcX3vQlY-71" style="rounded=0;orthogonalLoop=1;jettySize=auto;html=1;exitX=1;exitY=0.5;exitDx=0;exitDy=0;entryX=0;entryY=0.3333333333333333;entryDx=0;entryDy=0;entryPerimeter=0;endArrow=none;endFill=0;" parent="1" source="Ct0I48tkdxGMEcX3vQlY-24" target="Ct0I48tkdxGMEcX3vQlY-25" edge="1">
          <mxGeometry relative="1" as="geometry" />
        </mxCell>
      </root>
    </mxGraphModel>
  </diagram>
</mxfile>
